<svg xmlns="http://www.w3.org/2000/svg" style="display: none;"><symbol id="javascript" viewBox="0 0 56 56"><title>javascript</title><path style="fill:#E9E9E0;" d="M36.985,0H7.963C7.155,0,6.5,0.655,6.5,1.926V55c0,0.345,0.655,1,1.463,1h40.074 c0.808,0,1.463-0.655,1.463-1V12.978c0-0.696-0.093-0.92-0.257-1.085L37.607,0.257C37.442,0.093,37.218,0,36.985,0z"/><polygon style="fill:#D9D7CA;" points="37.5,0.151 37.5,12 49.349,12 "/><path style="fill:#EEAF4B;" d="M48.037,56H7.963C7.155,56,6.5,55.345,6.5,54.537V39h43v15.537C49.5,55.345,48.845,56,48.037,56z"/><g> <path style="fill:#FFFFFF;" d="M26.021,42.719v7.848c0,0.474-0.087,0.873-0.26,1.196c-0.174,0.323-0.406,0.583-0.697,0.779 c-0.292,0.196-0.627,0.333-1.005,0.41s-0.769,0.116-1.169,0.116c-0.201,0-0.436-0.021-0.704-0.062s-0.547-0.104-0.834-0.191 s-0.563-0.185-0.827-0.294c-0.265-0.109-0.488-0.232-0.67-0.369l0.697-1.107c0.091,0.063,0.221,0.13,0.39,0.198 s0.353,0.132,0.554,0.191c0.2,0.06,0.41,0.111,0.629,0.157s0.424,0.068,0.615,0.068c0.482,0,0.868-0.094,1.155-0.28 s0.439-0.504,0.458-0.95v-7.711H26.021z"/> <path style="fill:#FFFFFF;" d="M34.184,50.238c0,0.364-0.075,0.718-0.226,1.06s-0.362,0.643-0.636,0.902s-0.611,0.467-1.012,0.622 c-0.401,0.155-0.857,0.232-1.367,0.232c-0.219,0-0.444-0.012-0.677-0.034s-0.468-0.062-0.704-0.116 c-0.237-0.055-0.463-0.13-0.677-0.226s-0.399-0.212-0.554-0.349l0.287-1.176c0.127,0.073,0.289,0.144,0.485,0.212 s0.398,0.132,0.608,0.191c0.209,0.06,0.419,0.107,0.629,0.144c0.209,0.036,0.405,0.055,0.588,0.055c0.556,0,0.982-0.13,1.278-0.39 s0.444-0.645,0.444-1.155c0-0.31-0.105-0.574-0.314-0.793c-0.21-0.219-0.472-0.417-0.786-0.595s-0.654-0.355-1.019-0.533 c-0.365-0.178-0.707-0.388-1.025-0.629c-0.319-0.241-0.584-0.526-0.793-0.854c-0.21-0.328-0.314-0.738-0.314-1.23 c0-0.446,0.082-0.843,0.246-1.189s0.385-0.641,0.663-0.882s0.602-0.426,0.971-0.554s0.759-0.191,1.169-0.191 c0.419,0,0.843,0.039,1.271,0.116c0.428,0.077,0.774,0.203,1.039,0.376c-0.055,0.118-0.119,0.248-0.191,0.39 c-0.073,0.142-0.142,0.273-0.205,0.396c-0.064,0.123-0.119,0.226-0.164,0.308c-0.046,0.082-0.073,0.128-0.082,0.137 c-0.055-0.027-0.116-0.063-0.185-0.109s-0.167-0.091-0.294-0.137c-0.128-0.046-0.297-0.077-0.506-0.096 c-0.21-0.019-0.479-0.014-0.807,0.014c-0.183,0.019-0.355,0.07-0.52,0.157s-0.311,0.193-0.438,0.321 c-0.128,0.128-0.229,0.271-0.301,0.431c-0.073,0.159-0.109,0.313-0.109,0.458c0,0.364,0.104,0.658,0.314,0.882 c0.209,0.224,0.469,0.419,0.779,0.588c0.31,0.169,0.646,0.333,1.012,0.492c0.364,0.159,0.704,0.354,1.019,0.581 s0.576,0.513,0.786,0.854C34.078,49.261,34.184,49.7,34.184,50.238z"/> </g><g> <path style="fill:#EEAF4B;" d="M19.5,19v-4c0-0.551,0.448-1,1-1c0.553,0,1-0.448,1-1s-0.447-1-1-1c-1.654,0-3,1.346-3,3v4 c0,1.103-0.897,2-2,2c-0.553,0-1,0.448-1,1s0.447,1,1,1c1.103,0,2,0.897,2,2v4c0,1.654,1.346,3,3,3c0.553,0,1-0.448,1-1 s-0.447-1-1-1c-0.552,0-1-0.449-1-1v-4c0-1.2-0.542-2.266-1.382-3C18.958,21.266,19.5,20.2,19.5,19z"/> <circle style="fill:#EEAF4B;" cx="27.5" cy="18.5" r="1.5"/> <path style="fill:#EEAF4B;" d="M39.5,21c-1.103,0-2-0.897-2-2v-4c0-1.654-1.346-3-3-3c-0.553,0-1,0.448-1,1s0.447,1,1,1 c0.552,0,1,0.449,1,1v4c0,1.2,0.542,2.266,1.382,3c-0.84,0.734-1.382,1.8-1.382,3v4c0,0.551-0.448,1-1,1c-0.553,0-1,0.448-1,1 s0.447,1,1,1c1.654,0,3-1.346,3-3v-4c0-1.103,0.897-2,2-2c0.553,0,1-0.448,1-1S40.053,21,39.5,21z"/> <path style="fill:#EEAF4B;" d="M27.5,24c-0.553,0-1,0.448-1,1v3c0,0.552,0.447,1,1,1s1-0.448,1-1v-3 C28.5,24.448,28.053,24,27.5,24z"/> </g></symbol><symbol id="css" viewBox="0 0 56 56"><title>css</title><path style="fill:#E9E9E0;" d="M36.985,0H7.963C7.155,0,6.5,0.655,6.5,1.926V55c0,0.345,0.655,1,1.463,1h40.074 c0.808,0,1.463-0.655,1.463-1V12.978c0-0.696-0.093-0.92-0.257-1.085L37.607,0.257C37.442,0.093,37.218,0,36.985,0z"/><polygon style="fill:#D9D7CA;" points="37.5,0.151 37.5,12 49.349,12 "/><path style="fill:#0096E6;" d="M48.037,56H7.963C7.155,56,6.5,55.345,6.5,54.537V39h43v15.537C49.5,55.345,48.845,56,48.037,56z"/><g> <path style="fill:#FFFFFF;" d="M23.58,51.975c-0.374,0.364-0.798,0.638-1.271,0.82s-0.984,0.273-1.531,0.273 c-0.602,0-1.155-0.109-1.661-0.328s-0.948-0.542-1.326-0.971s-0.675-0.966-0.889-1.613c-0.214-0.647-0.321-1.395-0.321-2.242 s0.107-1.593,0.321-2.235c0.214-0.643,0.511-1.178,0.889-1.606s0.822-0.754,1.333-0.978s1.062-0.335,1.654-0.335 c0.547,0,1.058,0.091,1.531,0.273s0.897,0.456,1.271,0.82l-1.135,1.012c-0.228-0.265-0.48-0.456-0.759-0.574 s-0.567-0.178-0.868-0.178c-0.337,0-0.658,0.063-0.964,0.191s-0.579,0.344-0.82,0.649s-0.431,0.699-0.567,1.183 s-0.21,1.075-0.219,1.777c0.009,0.684,0.08,1.267,0.212,1.75s0.314,0.877,0.547,1.183s0.497,0.528,0.793,0.67 s0.608,0.212,0.937,0.212s0.636-0.06,0.923-0.178s0.549-0.31,0.786-0.574L23.58,51.975z"/> <path style="fill:#FFFFFF;" d="M31.633,50.238c0,0.364-0.075,0.718-0.226,1.06s-0.362,0.643-0.636,0.902s-0.61,0.467-1.012,0.622 s-0.856,0.232-1.367,0.232c-0.219,0-0.444-0.012-0.677-0.034s-0.467-0.062-0.704-0.116s-0.463-0.13-0.677-0.226 s-0.398-0.212-0.554-0.349l0.287-1.176c0.128,0.073,0.289,0.144,0.485,0.212s0.398,0.132,0.608,0.191s0.419,0.107,0.629,0.144 s0.405,0.055,0.588,0.055c0.556,0,0.982-0.13,1.278-0.39s0.444-0.645,0.444-1.155c0-0.31-0.104-0.574-0.314-0.793 s-0.472-0.417-0.786-0.595s-0.654-0.355-1.019-0.533s-0.706-0.388-1.025-0.629s-0.583-0.526-0.793-0.854s-0.314-0.738-0.314-1.23 c0-0.446,0.082-0.843,0.246-1.189s0.385-0.641,0.663-0.882s0.602-0.426,0.971-0.554s0.759-0.191,1.169-0.191 c0.419,0,0.843,0.039,1.271,0.116s0.774,0.203,1.039,0.376c-0.055,0.118-0.118,0.248-0.191,0.39s-0.142,0.273-0.205,0.396 c-0.063,0.123-0.118,0.226-0.164,0.308s-0.073,0.128-0.082,0.137c-0.055-0.027-0.116-0.063-0.185-0.109s-0.166-0.091-0.294-0.137 s-0.296-0.077-0.506-0.096s-0.479-0.014-0.807,0.014c-0.183,0.019-0.355,0.07-0.52,0.157s-0.31,0.193-0.438,0.321 s-0.228,0.271-0.301,0.431s-0.109,0.313-0.109,0.458c0,0.364,0.104,0.658,0.314,0.882s0.47,0.419,0.779,0.588 s0.647,0.333,1.012,0.492s0.704,0.354,1.019,0.581s0.576,0.513,0.786,0.854S31.633,49.7,31.633,50.238z"/> <path style="fill:#FFFFFF;" d="M39.043,50.238c0,0.364-0.075,0.718-0.226,1.06s-0.362,0.643-0.636,0.902s-0.61,0.467-1.012,0.622 s-0.856,0.232-1.367,0.232c-0.219,0-0.444-0.012-0.677-0.034s-0.467-0.062-0.704-0.116s-0.463-0.13-0.677-0.226 s-0.398-0.212-0.554-0.349l0.287-1.176c0.128,0.073,0.289,0.144,0.485,0.212s0.398,0.132,0.608,0.191s0.419,0.107,0.629,0.144 s0.405,0.055,0.588,0.055c0.556,0,0.982-0.13,1.278-0.39s0.444-0.645,0.444-1.155c0-0.31-0.104-0.574-0.314-0.793 s-0.472-0.417-0.786-0.595s-0.654-0.355-1.019-0.533s-0.706-0.388-1.025-0.629s-0.583-0.526-0.793-0.854s-0.314-0.738-0.314-1.23 c0-0.446,0.082-0.843,0.246-1.189s0.385-0.641,0.663-0.882s0.602-0.426,0.971-0.554s0.759-0.191,1.169-0.191 c0.419,0,0.843,0.039,1.271,0.116s0.774,0.203,1.039,0.376c-0.055,0.118-0.118,0.248-0.191,0.39s-0.142,0.273-0.205,0.396 s-0.118,0.226-0.164,0.308s-0.073,0.128-0.082,0.137c-0.055-0.027-0.116-0.063-0.185-0.109s-0.166-0.091-0.294-0.137 s-0.296-0.077-0.506-0.096s-0.479-0.014-0.807,0.014c-0.183,0.019-0.355,0.07-0.52,0.157s-0.31,0.193-0.438,0.321 s-0.228,0.271-0.301,0.431s-0.109,0.313-0.109,0.458c0,0.364,0.104,0.658,0.314,0.882s0.47,0.419,0.779,0.588 s0.647,0.333,1.012,0.492s0.704,0.354,1.019,0.581s0.576,0.513,0.786,0.854S39.043,49.7,39.043,50.238z"/> </g><g> <path style="fill:#0096E6;" d="M19.5,19v-4c0-0.551,0.448-1,1-1c0.553,0,1-0.448,1-1s-0.447-1-1-1c-1.654,0-3,1.346-3,3v4 c0,1.103-0.897,2-2,2c-0.553,0-1,0.448-1,1s0.447,1,1,1c1.103,0,2,0.897,2,2v4c0,1.654,1.346,3,3,3c0.553,0,1-0.448,1-1 s-0.447-1-1-1c-0.552,0-1-0.449-1-1v-4c0-1.2-0.542-2.266-1.382-3C18.958,21.266,19.5,20.2,19.5,19z"/> <path style="fill:#0096E6;" d="M39.5,21c-1.103,0-2-0.897-2-2v-4c0-1.654-1.346-3-3-3c-0.553,0-1,0.448-1,1s0.447,1,1,1 c0.552,0,1,0.449,1,1v4c0,1.2,0.542,2.266,1.382,3c-0.84,0.734-1.382,1.8-1.382,3v4c0,0.551-0.448,1-1,1c-0.553,0-1,0.448-1,1 s0.447,1,1,1c1.654,0,3-1.346,3-3v-4c0-1.103,0.897-2,2-2c0.553,0,1-0.448,1-1S40.053,21,39.5,21z"/> </g></symbol><symbol id="javascript-1" viewBox="0 0 58 58"><title>javascript-1</title><path d="M6.5,41v15c0,1.009,1.22,2,2.463,2h40.074c1.243,0,2.463-0.991,2.463-2V41H6.5z M27.021,51.566 c0,0.474-0.087,0.873-0.26,1.196c-0.174,0.323-0.406,0.583-0.697,0.779c-0.292,0.196-0.627,0.333-1.005,0.41 s-0.769,0.116-1.169,0.116c-0.201,0-0.436-0.021-0.704-0.062s-0.547-0.104-0.834-0.191s-0.563-0.185-0.827-0.294 c-0.265-0.109-0.488-0.232-0.67-0.369l0.697-1.107c0.091,0.063,0.221,0.13,0.39,0.198s0.353,0.132,0.554,0.191 c0.2,0.06,0.41,0.111,0.629,0.157s0.424,0.068,0.615,0.068c0.482,0,0.868-0.094,1.155-0.28s0.439-0.504,0.458-0.95v-7.711h1.668 V51.566z M34.958,52.298c-0.15,0.342-0.362,0.643-0.636,0.902s-0.611,0.467-1.012,0.622c-0.401,0.155-0.857,0.232-1.367,0.232 c-0.219,0-0.444-0.012-0.677-0.034s-0.468-0.062-0.704-0.116c-0.237-0.055-0.463-0.13-0.677-0.226s-0.399-0.212-0.554-0.349 l0.287-1.176c0.127,0.073,0.289,0.144,0.485,0.212s0.398,0.132,0.608,0.191c0.209,0.06,0.419,0.107,0.629,0.144 c0.209,0.036,0.405,0.055,0.588,0.055c0.556,0,0.982-0.13,1.278-0.39s0.444-0.645,0.444-1.155c0-0.31-0.105-0.574-0.314-0.793 c-0.21-0.219-0.472-0.417-0.786-0.595s-0.654-0.355-1.019-0.533c-0.365-0.178-0.707-0.388-1.025-0.629 c-0.319-0.241-0.584-0.526-0.793-0.854c-0.21-0.328-0.314-0.738-0.314-1.23c0-0.446,0.082-0.843,0.246-1.189 s0.385-0.641,0.663-0.882s0.602-0.426,0.971-0.554s0.759-0.191,1.169-0.191c0.419,0,0.843,0.039,1.271,0.116 c0.428,0.077,0.774,0.203,1.039,0.376c-0.055,0.118-0.119,0.248-0.191,0.39c-0.073,0.142-0.142,0.273-0.205,0.396 c-0.064,0.123-0.119,0.226-0.164,0.308c-0.046,0.082-0.073,0.128-0.082,0.137c-0.055-0.027-0.116-0.063-0.185-0.109 s-0.167-0.091-0.294-0.137c-0.128-0.046-0.297-0.077-0.506-0.096c-0.21-0.019-0.479-0.014-0.807,0.014 c-0.183,0.019-0.355,0.07-0.52,0.157s-0.311,0.193-0.438,0.321c-0.128,0.128-0.229,0.271-0.301,0.431 c-0.073,0.159-0.109,0.313-0.109,0.458c0,0.364,0.104,0.658,0.314,0.882c0.209,0.224,0.469,0.419,0.779,0.588 c0.31,0.169,0.646,0.333,1.012,0.492c0.364,0.159,0.704,0.354,1.019,0.581s0.576,0.513,0.786,0.854 c0.209,0.342,0.314,0.781,0.314,1.319C35.184,51.603,35.108,51.956,34.958,52.298z"/><path d="M51.5,39V13.978c0-0.766-0.092-1.333-0.55-1.792L39.313,0.55C38.964,0.201,38.48,0,37.985,0H8.963 C7.777,0,6.5,0.916,6.5,2.926V39H51.5z M29.5,32c0,0.552-0.447,1-1,1s-1-0.448-1-1v-3c0-0.552,0.447-1,1-1s1,0.448,1,1V32z M37.5,3.391c0-0.458,0.553-0.687,0.877-0.363l10.095,10.095C48.796,13.447,48.567,14,48.109,14H37.5V3.391z M36.5,23v-4 c0-0.551-0.448-1-1-1c-0.553,0-1-0.448-1-1s0.447-1,1-1c1.654,0,3,1.346,3,3v4c0,1.103,0.897,2,2,2c0.553,0,1,0.448,1,1 s-0.447,1-1,1c-1.103,0-2,0.897-2,2v4c0,1.654-1.346,3-3,3c-0.553,0-1-0.448-1-1s0.447-1,1-1c0.552,0,1-0.449,1-1v-4 c0-1.2,0.542-2.266,1.382-3C37.042,25.266,36.5,24.2,36.5,23z M28.5,21c0.828,0,1.5,0.672,1.5,1.5S29.328,24,28.5,24 S27,23.328,27,22.5S27.672,21,28.5,21z M16.5,25c1.103,0,2-0.897,2-2v-4c0-1.654,1.346-3,3-3c0.553,0,1,0.448,1,1s-0.447,1-1,1 c-0.552,0-1,0.449-1,1v4c0,1.2-0.542,2.266-1.382,3c0.84,0.734,1.382,1.8,1.382,3v4c0,0.551,0.448,1,1,1c0.553,0,1,0.448,1,1 s-0.447,1-1,1c-1.654,0-3-1.346-3-3v-4c0-1.103-0.897-2-2-2c-0.553,0-1-0.448-1-1S15.947,25,16.5,25z"/></symbol><symbol id="python" viewBox="-4 0 512 512"><title>python</title><path d="m504.753906 250.316406v58.050782c0 30.707031-24.890625 55.59375-55.597656 55.59375h-173.445312c-9.523438 0-17.175782 7.953124-16.730469 17.570312.445312 9.109375 8.324219 15.914062 17.207031 15.914062h41.019531c9.257813 0 16.75 7.503907 16.75 16.75v41.855469c0 30.90625-25.054687 55.949219-55.945312 55.949219h-48.660157c-30.902343 0-55.957031-25.042969-55.957031-55.949219v-147.457031h-117.796875c-30.707031 0-55.597656-24.890625-55.597656-55.597656v-49.371094c0-30.707031 24.890625-55.597656 55.597656-55.597656h117.796875v-.007813h50.769531c9.503907 0 17.164063-7.921875 16.730469-17.539062-.425781-9.007813-8.179687-15.953125-17.207031-15.953125h-33.542969c-9.246093 0-16.75-7.496094-16.75-16.742188v-41.835937c0-30.90625 25.054688-55.949219 55.957031-55.949219h48.660157c30.839843 0 55.855469 24.949219 55.945312 55.792969v138.925781h115.199219c30.707031 0 55.597656 24.902344 55.597656 55.597656zm0 0" fill="#ffda44"/><path d="m504.753906 250.316406v58.050782c0 30.707031-24.890625 55.59375-55.597656 55.59375h-173.445312c-9.523438 0-17.175782 7.953124-16.730469 17.570312.445312 9.109375 8.324219 15.914062 17.207031 15.914062h41.019531c9.257813 0 16.75 7.503907 16.75 16.75v41.855469c0 30.90625-25.054687 55.949219-55.945312 55.949219h-24.332031v-512h24.332031c30.839843 0 55.855469 24.949219 55.945312 55.792969v138.925781h115.199219c30.707031 0 55.597656 24.902344 55.597656 55.597656zm0 0" fill="#ffcd00"/><path d="m318.261719 437.164062c0 9.246094-7.492188 16.742188-16.738281 16.742188-9.246094 0-16.742188-7.496094-16.742188-16.742188 0-9.246093 7.496094-16.738281 16.742188-16.738281 9.246093 0 16.738281 7.492188 16.738281 16.738281zm0 0" fill="#4895ff"/><path d="m318.261719 437.164062c0 9.246094-7.492188 16.742188-16.738281 16.742188v-33.480469c9.246093 0 16.738281 7.492188 16.738281 16.738281zm0 0" fill="#2682ff"/><path d="m333.957031 55.792969v138.925781 22.953125c0 18.503906-14.988281 33.492187-33.492187 33.492187h-110.320313c-9.246093 0-16.75 7.507813-16.75 16.742188v40.6875h-117.796875c-30.707031 0-55.597656-24.898438-55.597656-55.597656v-49.371094c0-30.699219 24.890625-55.597656 55.597656-55.597656h117.796875v-.007813h50.769531c9.503907 0 17.164063-7.921875 16.730469-17.539062-.425781-9.007813-8.179687-15.953125-17.207031-15.953125h-33.542969c-9.246093 0-16.75-7.496094-16.75-16.742188v-41.835937c0-30.90625 25.054688-55.949219 55.957031-55.949219h48.660157c30.839843 0 55.855469 24.949219 55.945312 55.792969zm0 0" fill="#4895ff"/><path d="m333.957031 55.792969v138.925781 22.953125c0 18.503906-14.988281 33.492187-33.492187 33.492187h-46.785156v-251.164062h24.332031c30.839843 0 55.855469 24.949219 55.945312 55.792969zm0 0" fill="#2682ff"/><path d="m226.433594 78.695312c0 9.242188-7.496094 16.738282-16.742188 16.738282-9.257812 0-16.75-7.496094-16.75-16.738282 0-9.246093 7.492188-16.753906 16.75-16.753906 9.246094 0 16.742188 7.507813 16.742188 16.753906zm0 0" fill="#ffda44"/><path d="m226.433594 78.695312c0 9.242188-7.496094 16.738282-16.742188 16.738282v-33.492188c9.246094 0 16.742188 7.507813 16.742188 16.753906zm0 0" fill="#ffcd00"/></symbol><symbol id="swift" viewBox="0 0 512 512"><title>swift</title><path style="fill:#FE4216;" d="M512,256c0,58.399-19.55,112.232-52.485,155.314c-2.696,3.532-5.486,6.99-8.359,10.376 C404.198,476.944,334.19,512,256,512C114.615,512,0,397.385,0,256c0-61.994,22.037-118.857,58.723-163.15 c0.376-0.47,0.763-0.93,1.139-1.379C106.83,35.547,177.267,0,256,0C397.385,0,512,114.615,512,256z"/><path style="fill:#F2F2F2;" d="M459.515,411.314c-2.696,3.532-5.486,6.99-8.359,10.376c-9.091-14.597-23.353-29.027-44.743-31.556 c-45.568-5.402-62.945,25.172-110.895,31.169C108.502,445.273,10.449,285.226,10.449,285.226 c79.193,60.583,187.705,74.553,257.63,29.895c-0.251-0.167-0.502-0.345-0.742-0.512C176.41,250.483,80.875,123.214,58.723,92.85 c-3.114-4.274-4.775-6.625-4.775-6.625c1.964,1.755,3.939,3.5,5.914,5.245c83.686,73.697,177.507,132.618,177.507,132.618 C165.407,152.127,109.38,63.634,108.502,62.265C204.413,167.152,329.08,242.072,329.08,242.072 c39.915-120.916-42.109-214.768-43.144-215.949c1.139,0.627,97.301,54.721,132.462,159.608 c16.624,49.591,12.319,92.693,3.093,124.447v0.01C453.381,345.433,461.291,386.142,459.515,411.314z"/></symbol><symbol id="final-cut" viewBox="0 0 287.692 287.692"><title>final-cut</title><path d="M282.987,239.754l-20.885-118.438c-0.001-0.005-0.001-0.01-0.002-0.015l-6.963-39.483c-0.404-2.295-1.813-4.16-3.693-5.225 c-1.462-0.828-3.211-1.173-4.995-0.858L108.927,99.983l131.224-47.762c3.892-1.417,5.899-5.721,4.482-9.613L230.921,4.934 c-0.681-1.869-2.075-3.392-3.878-4.233c-1.803-0.84-3.865-0.93-5.735-0.25L9.528,77.533c-3.892,1.417-5.899,5.721-4.483,9.613 l13.488,37.06l6.848,38.835c0,0,0,0.001,0,0.001l20.887,118.452c0.345,1.959,1.454,3.701,3.084,4.841 c1.269,0.889,2.772,1.357,4.302,1.357c0.434,0,0.869-0.038,1.303-0.114l221.947-39.136c1.959-0.346,3.7-1.455,4.841-3.085 C282.885,243.728,283.332,241.713,282.987,239.754z M246.025,116.52l-27.791,4.9l15.412-28.197l8.021-1.414L246.025,116.52z M34.494,128.339l27.878-4.916L46.958,151.62l-8.107,1.43L34.494,128.339z M96.766,61.743L86.484,92.189l-30.409,11.068 l10.282-30.445L96.766,61.743z M145.227,44.105l-10.283,30.445l-30.409,11.068l10.282-30.445L145.227,44.105z M193.685,26.468 l-10.28,30.444L152.995,67.98l10.282-30.445L193.685,26.468z M81.289,120.088l31.867-5.619l-15.412,28.197l-31.868,5.619 L81.289,120.088z M132.075,111.133l31.869-5.62l-15.413,28.197l-31.868,5.619L132.075,111.133z M182.862,102.178l31.866-5.619 l-15.412,28.197l-31.867,5.619L182.862,102.178z M227.972,40.691l-26.518,9.652l10.28-30.444l7.656-2.787L227.972,40.691z M48.306,79.382l-10.282,30.445l-7.736,2.816l-8.582-23.58L48.306,79.382z M59.738,271.503L41.455,167.823l207.175-36.53 l18.282,103.68L59.738,271.503z"/></symbol><symbol id="css-1" viewBox="0 0 512 512"><title>css-1</title><path style="fill:#F2F2F2;" d="M512,256c0,82.317-38.86,155.564-99.234,202.397C369.455,492.001,315.068,512,256,512 s-113.455-19.999-156.766-53.603C38.86,411.564,0,338.317,0,256C0,114.615,114.615,0,256,0S512,114.615,512,256z"/><path style="fill:#006BC0;" d="M441.992,119.474l-29.226,338.923C369.455,492.001,315.068,512,256,512 s-113.455-19.999-156.766-53.603L70.008,119.474H441.992z"/><polygon style="fill:#0096DC;" points="255.997,151.338 255.997,505.296 378.269,470.777 405.545,151.338 "/><polygon style="fill:#FFFFFF;" points="364.036,289.787 275.85,289.787 367.999,242.89 371.981,195.746 140.013,195.746 144.072,243.811 237.189,243.811 147.845,288.484 152.002,337.723 152.002,337.723 311.376,337.723 306.152,396.366 255.997,409.95 203.752,395.321 202.446,358.75 153.778,358.75 159.866,430.848 255.997,458.015 352.127,430.848 364.039,289.779 "/><g> <polygon style="fill:#222123;" points="165.352,67.224 165.352,33.787 213.417,33.787 213.417,15.676 147.937,15.676 147.937,85.335 213.417,85.335 213.417,67.224 "/> <polygon style="fill:#222123;" points="241.542,42.93 241.542,34.57 289.347,34.57 289.347,33.787 289.347,15.676 223.866,15.676 223.866,58.864 270.799,58.864 270.799,67.224 223.866,67.224 223.866,85.335 289.347,85.335 289.347,67.224 289.347,42.93 "/> <polygon style="fill:#222123;" points="316.252,42.93 316.252,34.57 364.056,34.57 364.056,33.787 364.056,15.676 298.576,15.676 298.576,58.864 345.509,58.864 345.509,67.224 298.576,67.224 298.576,85.335 364.056,85.335 364.056,67.224 364.056,42.93 "/> </g></symbol><symbol id="sass" viewBox="0 0 512 512"><title>sass</title><path style="fill:#F2F2F2;" d="M512,256c0,7.91-0.355,15.726-1.066,23.448c-0.543,6.113-1.317,12.152-2.299,18.119 C488.782,419.182,383.227,512,256,512c-64.805,0-123.977-24.074-169.075-63.781c-16.666-14.66-31.41-31.462-43.802-49.977 C15.882,357.564,0,308.632,0,256C0,114.615,114.615,0,256,0S512,114.615,512,256z"/><path style="fill:#CD6699;" d="M446.767,284.975c-7.764,2.936-7.45,2.988-11.557-4.493c-5.245-9.529-8.035-19.55-8.276-30.448 c-0.199-9.352,2.361-18.045,5.58-26.572c2.57-6.781-0.773-9.174-6.646-9.791c-4.274-0.439-8.683-0.397-12.967,0.042 c-11.139,1.139-12.236,2.1-15.193,12.915c-1.755,6.416-3.156,12.884-6.071,18.975c-7.189,14.994-15.36,29.435-23.74,43.771 c-1.505,2.581-2.748,5.36-4.869,7.565c-6.071-9.091-8.359-19.132-8.871-29.665c-0.512-10.397,2.675-20.062,6.175-29.623 c1.181-3.218,0.199-5.214-2.581-6.604c-1.233-0.616-2.612-1.191-3.96-1.296c-7.147-0.564-14.273-0.481-21.243,1.473 c-3.135,0.867-5.183,2.623-5.883,6.144c-1.358,6.886-3.479,13.573-6.343,20.01c-7.941,17.826-15.83,35.683-23.761,53.52 c-6.896,15.496-13.688,31.033-21.859,45.913c-0.575,1.055-1.055,2.884-2.497,2.518c-1.463-0.366-0.951-2.163-1.014-3.396 c-0.47-8.777,1.923-17.147,3.96-25.527c3.229-13.26,6.76-26.457,10.188-39.675c0.982-3.793-0.669-6.343-3.814-8.161 c-4.524-2.602-9.028-2.727-13.928,0.919c0.669-5.392,0.961-10.125,0.731-14.858c-0.522-10.553-5.413-17.418-13.928-19.007 c-6.217-1.16-12.1,0.648-17.659,3.281c-12.957,6.134-23.374,15.381-32.131,26.603c-1.024,1.306-2.058,2.508-3.542,3.312 c-16.436,8.955-32.862,17.91-49.256,26.948c-1.797,1.003-2.957,0.721-4.253-0.669c-8.255-8.85-17.836-16.154-27.324-23.562 c-13.26-10.365-26.979-20.187-38.421-32.684c-6.687-7.314-12.267-15.329-15.057-25.004c-4.556-15.82-1.149-30.553,6.437-44.554 c8.976-16.562,22.288-29.351,36.968-40.741c23.312-18.077,48.88-32.434,75.828-44.251c30.177-13.218,61.482-21.734,94.824-20.449 c13.208,0.512,26.028,2.8,37.794,9.268c8.328,4.577,13.845,11.191,15.402,20.898c1.829,11.368-0.899,21.87-5.945,31.828 c-11.274,22.246-29.194,38.003-50.375,50.343c-17.638,10.271-36.665,16.792-56.801,20.208c-11.128,1.891-22.298,3.03-33.489,1.327 c-12.842-1.954-24.712-6.248-33.499-16.593c-1.014-1.191-2.299-2.017-4.023-1.181c-1.766,0.857-1.63,2.424-1.463,3.929 c0.125,1.034,0.408,2.079,0.773,3.062c2.351,6.343,6.75,11.128,11.901,15.308c13.396,10.898,29.268,14.096,45.934,14.42 c16.311,0.324,32.371-1.745,48.264-5.548c35.85-8.568,65.881-26.154,87.803-56.289c13.103-18.014,21.4-37.867,20.668-60.583 c-0.47-14.409-5.319-27.136-15.82-37.48c-12.487-12.278-27.982-18.453-44.607-22.162c-18.516-4.117-37.219-4.702-56.111-2.445 c-16.436,1.964-32.496,5.329-48.128,10.71c-23.918,8.244-47.02,18.369-69.13,30.678c-22.653,12.601-44.001,27.032-62.725,45.108 c-16.572,15.997-30.814,33.646-38.839,55.557c-3.427,9.383-5.893,19.028-3.594,29.174c2.947,13.061,9.383,24.367,17.847,34.565 c12.8,15.444,28.505,27.606,44.701,39.225c13.009,9.341,26.624,17.847,39.121,27.888c3.542,2.842,3.521,2.842-0.648,5.026 c-4.869,2.539-9.791,4.984-14.576,7.69C91.951,342.695,73.3,354.523,58.075,370.96c-7.492,8.098-12.581,17.189-14.952,27.282 c12.392,18.516,27.136,35.318,43.802,49.977c28.432-2.215,50.197-17.011,66.278-41.482c7.764-11.818,11.4-25.192,12.769-39.299 c1.202-12.434-0.063-24.472-3.72-36.342c-0.637-2.09-3.009-4.169-2.079-6.008c0.867-1.693,3.48-2.55,5.402-3.657 c7.753-4.504,15.527-8.944,23.51-13.531c0.345,1.714-0.324,2.717-0.616,3.803c-4.577,16.792-7.764,33.719-4.284,51.169 c2.163,10.867,5.768,21.096,12.622,30.093c7.053,9.258,22.8,8.202,29.194-0.251c6.071-8.025,10.094-17.074,14.284-26.081 c2.299-4.932,4.409-9.947,6.604-14.932c-0.408,5.998-0.387,11.849-0.167,17.68c0.219,5.747,1.139,11.421,4.127,16.499 c3.594,6.102,10.355,7.879,16.635,4.618c6.625-3.438,11.139-9.101,14.649-15.245c15.057-26.425,29.027-53.415,40.594-81.596 c2.466-5.987,4.995-11.964,7.785-18.62c0.428,2.184,0.711,3.521,0.972,4.859c2.57,13.427,7.147,26.133,13.772,38.076 c1.421,2.56,1.264,4.326-0.533,6.781c-6.102,8.307-12.79,16.123-19.383,24.022c-5.538,6.646-11.463,12.999-16.144,20.313 c-4.2,6.583-1.787,13.322,5.204,14.817c2.152,0.46,4.42,0.596,6.625,0.564c12.215-0.146,23.489-3.793,33.991-9.77 c14.137-8.056,22.518-19.864,22.131-36.676c-0.178-7.649-2.247-14.994-5.329-22.006c-0.679-1.557-0.711-2.685,0.303-4.148 c9.791-14.023,18.442-28.724,26.394-43.854c1.411-2.664,2.403-5.622,4.681-8.223c0.303,1.055,0.543,1.714,0.679,2.393 c2.529,12.539,5.935,24.795,12.33,35.986c1.755,3.062,0.878,4.618-1.546,6.666c-8.349,7.095-15.391,15.37-20.919,24.848 c-4.305,7.377-7.252,15.255-7.22,23.897c0.031,9.613,7.387,15.276,16.76,13.019c9.77-2.341,18.829-6.322,26.958-12.267 c17.711-12.967,22.904-26.645,17.356-45.735c-2.173-7.513-2.132-7.387,5.402-9.665c16.478-4.974,33.196-5.183,49.998-2.445 c1.902,0.313,3.783,0.669,5.642,1.076c0.982-5.966,1.755-12.006,2.299-18.119C489.441,274.192,467.978,276.919,446.767,284.975z M98.586,419.401c-4.775,1.693-9.738,2.414-14.817,2.017c-6.322-0.502-10.334-4.963-10.742-11.672 c-0.46-7.732,1.829-14.712,5.214-21.504c6.154-12.33,16.488-20.699,27.032-28.912c10.25-7.993,21.264-14.817,32.402-21.452 c3.375-2.006,3.427-1.985,4.2,2.038c1.003,5.162,1.902,10.334,1.567,15.026C144.321,383.08,123.883,410.446,98.586,419.401z M251.956,277.514c-1.776,11.86-5.653,23.155-9.78,34.314c-5.622,15.235-11.097,30.542-18.171,45.192 c-1.62,3.375-3.323,6.729-5.945,9.477c-2.476,2.602-4.671,2.299-6.384-0.878c-3.344-6.207-2.926-13.113-3.469-18.129 c0.157-25.161,8.6-45.725,22.507-64.209c3.887-5.151,8.85-9.341,15.423-11.024C250.598,271.12,252.656,272.917,251.956,277.514z M349.341,352.005c-4.765,8.234-11.63,14.221-20.052,18.484c-0.899,0.449-2.058,1.243-2.873,0.188 c-0.773-0.993,0.47-1.651,1.034-2.278c8.37-9.143,16.635-18.359,24.085-28.275c0.115-0.157,0.397-0.178,1.034-0.449 C352.496,344.263,351.493,348.296,349.341,352.005z M407.134,351.65c-1.243,0.585-2.685,1.682-3.897,0.742 c-1.337-1.034-0.805-2.863-0.397-4.263c1.902-6.384,4.462-12.497,7.993-18.192c2.967-4.796,6.646-8.986,10.689-12.894 c1.63-1.567,2.361-1.379,2.915,0.878c0.575,2.309,0.627,4.618,0.669,6.969C425.002,337.753,418.471,346.311,407.134,351.65z"/></symbol><symbol id="logo" viewBox="0 0 434.147 434.147"><title>logo</title><path style="fill:#FC490B;" d="M27.336,14.372l28.177,360.474c0.423,5.413,4.087,10.029,9.263,11.67l148.268,47.008 c2.622,0.831,5.437,0.831,8.059,0l148.268-47.008c5.176-1.641,8.84-6.257,9.263-11.67l28.177-360.474 C407.417,6.622,401.292,0,393.519,0H40.629C32.856,0,26.731,6.622,27.336,14.372z M334.553,126.215H150.918l5.542,51.105h174.099 L319.17,323.013l-102.096,32.369l-102.096-32.369l-5.95-76.116h53.588v37.336l55.89,15l55.556-15l4.31-59.503H107.295L95.937,79.419 H338.21L334.553,126.215z"/></symbol></svg>